<mxfile host="app.diagrams.net" modified="2024-07-10T22:30:03.968Z" agent="Mozilla/5.0 (Windows NT 10.0; Win64; x64) AppleWebKit/537.36 (KHTML, like Gecko) Chrome/126.0.0.0 Safari/537.36" etag="wSbU6BTgJwGfz5ioI0Ml" version="24.6.4" type="device">
  <diagram name="Página-1" id="PBxmYCQhqJIXAW4sMDrv">
    <mxGraphModel dx="1877" dy="1691" grid="1" gridSize="10" guides="1" tooltips="1" connect="1" arrows="1" fold="1" page="1" pageScale="1" pageWidth="827" pageHeight="1169" math="0" shadow="0">
      <root>
        <mxCell id="0" />
        <mxCell id="1" parent="0" />
        <mxCell id="dV8JCtjt4j1U1PdBH2y9-8" value="" style="rounded=1;whiteSpace=wrap;html=1;fillColor=#d5e8d4;strokeColor=#82b366;" vertex="1" parent="1">
          <mxGeometry x="-20" y="-20" width="280" height="330" as="geometry" />
        </mxCell>
        <mxCell id="2" value="Construir ventanas de señales" style="whiteSpace=wrap;strokeWidth=2;" parent="1" vertex="1">
          <mxGeometry width="232" height="36" as="geometry" />
        </mxCell>
        <mxCell id="3" value="FastICA" style="whiteSpace=wrap;strokeWidth=2;" parent="1" vertex="1">
          <mxGeometry x="81" y="86" width="69" height="36" as="geometry" />
        </mxCell>
        <mxCell id="4" value="mDWT Haar" style="whiteSpace=wrap;strokeWidth=2;" parent="1" vertex="1">
          <mxGeometry x="66" y="172" width="101" height="36" as="geometry" />
        </mxCell>
        <mxCell id="5" value="Construir Caracteristicas" style="whiteSpace=wrap;strokeWidth=2;" parent="1" vertex="1">
          <mxGeometry x="18" y="257" width="195" height="36" as="geometry" />
        </mxCell>
        <mxCell id="6" value="" style="curved=1;startArrow=none;endArrow=block;exitX=0.5;exitY=0.99;entryX=0.51;entryY=-0.01;" parent="1" source="2" target="3" edge="1">
          <mxGeometry relative="1" as="geometry">
            <Array as="points" />
          </mxGeometry>
        </mxCell>
        <mxCell id="7" value="" style="curved=1;startArrow=none;endArrow=block;exitX=0.51;exitY=0.99;entryX=0.49;entryY=-0.01;" parent="1" source="3" target="4" edge="1">
          <mxGeometry relative="1" as="geometry">
            <Array as="points" />
          </mxGeometry>
        </mxCell>
        <mxCell id="8" value="" style="curved=1;startArrow=none;endArrow=block;exitX=0.49;exitY=0.98;entryX=0.5;entryY=0.01;" parent="1" source="4" target="5" edge="1">
          <mxGeometry relative="1" as="geometry">
            <Array as="points" />
          </mxGeometry>
        </mxCell>
      </root>
    </mxGraphModel>
  </diagram>
</mxfile>
